<svg width="20" height="20" viewBox="0 0 20 20" fill="none" xmlns="http://www.w3.org/2000/svg">
<path d="M11.6666 1.66669H4.99992C4.55789 1.66669 4.13397 1.84228 3.82141 2.15484C3.50885 2.4674 3.33325 2.89133 3.33325 3.33335V16.6667C3.33325 17.1087 3.50885 17.5326 3.82141 17.8452C4.13397 18.1578 4.55789 18.3334 4.99992 18.3334H14.9999C15.4419 18.3334 15.8659 18.1578 16.1784 17.8452C16.491 17.5326 16.6666 17.1087 16.6666 16.6667V6.66669L11.6666 1.66669Z" stroke="#9CA3AF" stroke-width="1.5" stroke-linecap="round" stroke-linejoin="round"/>
<path d="M11.6667 1.66669V6.66669H16.6667" stroke="#9CA3AF" stroke-width="1.5" stroke-linecap="round" stroke-linejoin="round"/>
<path d="M13.3334 10.8333H6.66675" stroke="#9CA3AF" stroke-width="1.5" stroke-linecap="round" stroke-linejoin="round"/>
<path d="M13.3334 14.1667H6.66675" stroke="#9CA3AF" stroke-width="1.5" stroke-linecap="round" stroke-linejoin="round"/>
<path d="M8.33341 7.5H7.50008H6.66675" stroke="#9CA3AF" stroke-width="1.5" stroke-linecap="round" stroke-linejoin="round"/>
</svg>
