<svg width="20" height="20" viewBox="0 0 20 20" fill="none" xmlns="http://www.w3.org/2000/svg">
<path d="M6.66659 12.5C9.88825 12.5 12.4999 9.88837 12.4999 6.66671C12.4999 3.44505 9.88825 0.833374 6.66659 0.833374C3.44492 0.833374 0.833252 3.44505 0.833252 6.66671C0.833252 9.88837 3.44492 12.5 6.66659 12.5Z" stroke="#9CA3AF" stroke-width="1.5" stroke-linecap="round" stroke-linejoin="round"/>
<path d="M16.2501 8.28333C17.0257 8.73026 17.6881 9.3497 18.1859 10.0937C18.6837 10.8377 19.0036 11.6863 19.1208 12.5738C19.2381 13.4612 19.1495 14.3638 18.8619 15.2115C18.5743 16.0592 18.0955 16.8294 17.4625 17.4624C16.8295 18.0954 16.0594 18.5742 15.2116 18.8618C14.3639 19.1493 13.4614 19.2379 12.5739 19.1207C11.6864 19.0035 10.8378 18.6836 10.0938 18.1858C9.34983 17.688 8.73038 17.0256 8.28345 16.25" stroke="#9CA3AF" stroke-width="1.5" stroke-linecap="round" stroke-linejoin="round"/>
<path d="M5.83325 5H6.66659V8.33333" stroke="#9CA3AF" stroke-width="1.5" stroke-linecap="round" stroke-linejoin="round"/>
<path d="M14.4167 11.9166L15.0001 12.5L12.6667 14.8333" stroke="#9CA3AF" stroke-width="1.5" stroke-linecap="round" stroke-linejoin="round"/>
</svg>
